<svg width="1200" height="800" viewBox="0 0 1200 800" fill="none" xmlns="http://www.w3.org/2000/svg">
  <defs>
    <linearGradient id="bg" x1="0" y1="0" x2="1200" y2="800" gradientUnits="userSpaceOnUse">
      <stop stop-color="#173F8F"/>
      <stop offset="1" stop-color="#0F2A60"/>
    </linearGradient>
    <linearGradient id="accent" x1="210" y1="170" x2="900" y2="640" gradientUnits="userSpaceOnUse">
      <stop stop-color="#F4B27A"/>
      <stop offset="1" stop-color="#B8742F"/>
    </linearGradient>
  </defs>
  <rect width="1200" height="800" rx="36" fill="url(#bg)"/>
  <circle cx="185" cy="160" r="118" fill="white" fill-opacity="0.12"/>
  <circle cx="1060" cy="130" r="68" fill="white" fill-opacity="0.15"/>
  <circle cx="1020" cy="690" r="130" fill="white" fill-opacity="0.12"/>
  <rect x="145" y="162" width="915" height="505" rx="24" fill="white" fill-opacity="0.95"/>
  <rect x="200" y="242" width="560" height="26" rx="13" fill="#D7E2F6"/>
  <rect x="200" y="290" width="420" height="18" rx="9" fill="#E5EBF7"/>
  <rect x="200" y="324" width="370" height="18" rx="9" fill="#E5EBF7"/>
  <rect x="200" y="395" width="260" height="220" rx="16" fill="#F4F7FD"/>
  <rect x="500" y="395" width="220" height="220" rx="16" fill="#F4F7FD"/>
  <path d="M280 545L330 480L395 520L448 445" stroke="url(#accent)" stroke-width="14" stroke-linecap="round" stroke-linejoin="round"/>
  <rect x="770" y="242" width="235" height="380" rx="24" fill="url(#bg)"/>
  <rect x="810" y="304" width="155" height="18" rx="9" fill="white" fill-opacity="0.34"/>
  <rect x="810" y="340" width="120" height="18" rx="9" fill="white" fill-opacity="0.22"/>
  <rect x="810" y="420" width="70" height="150" rx="12" fill="#F4B27A"/>
  <rect x="895" y="372" width="70" height="198" rx="12" fill="#B8742F"/>
</svg>
