<svg xmlns="http://www.w3.org/2000/svg" version="1.1" xmlns:xlink="http://www.w3.org/1999/xlink" xmlns:svgjs="http://svgjs.dev/svgjs" width="100%" height="100%" viewBox="0 0 1000 600"><rect width="1000" height="600" x="0" y="0" fill="#ccf381"/><g><rect width="333.3333333333333" height="333.3333333333333" rx="13.333333333333334" ry="13.333333333333334" y="212.16260000512125" fill="#4831d4" transform="matrix(0.6581011002521353,0,0,0.6581011002521352,0,50.69201080042123)" x="189.94036865234375"/><path d="M211.48391824469172 451.549545253407L211.48391824469172 306.1089899133261L228.7116983117608 306.1089899133261L228.7116983117608 451.549545253407L211.48391824469172 451.549545253407ZM363.35964101351027 453.82926824385663L294.1599482147972 356.3783247153938L282.9633340338545 335.399101752648L282.1264736955881 335.399101752648L284.20419591473217 356.3783247153938L284.20419591473217 451.549545253407L267.98641970419135 451.549545253407L267.98641970419135 303.8292669228764L277.13416891903375 303.8292669228764L346.73786326035815 400.8473516556843L357.5304758986896 420.78771350885813L358.5693370082616 420.78771350885813L356.2896140178119 400.8473516556843L356.2896140178119 306.1089899133261L372.5073902283527 306.1089899133261L372.5073902283527 453.82926824385663L363.35964101351027 453.82926824385663ZM501.7301693578927 306.1089899133261L501.7301693578927 321.4899057856005L456.45313933237946 321.4899057856005L456.45313933237946 451.549545253407L439.1965020122667 451.549545253407L439.1965020122667 321.4899057856005L393.8906147337098 321.4899057856005L393.8906147337098 306.1089899133261L501.7301693578927 306.1089899133261Z " fill="#ccf381" transform="matrix(0.6581011002521353,0,0,0.6581011002521352,0,50.69201080042123)"/><path d="M701.3211643026451 431.8703277736257L705.4654468127482 445.3392459314606Q699.2490230475936 450.1166827139406 689.6941494826337 451.9873657914176Q680.1680556573274 453.8292691292412 669.404433026921 453.8292691292412L669.404433026921 453.8292691292412Q656.3384312242349 453.8292691292412 644.9416543214516 449.3971892226032Q633.5448774186681 444.93632957631166 625.0548542208875 435.81315210615423Q616.564831023107 426.6899746359968 611.5859360630526 412.5015629868245Q606.6070411029982 398.31315133765236 606.6070411029982 378.8292675922372L606.6070411029982 378.8292675922372Q606.6070411029982 358.51077139687084 612.1039713768155 344.32235974769867Q617.6009016506327 330.13394809852633 626.6089601621761 321.1258895869829Q635.6170186737196 312.1178310754394 646.8123373989285 307.9735485653364Q658.0076561241375 303.82926605523335 669.6058912044954 303.82926605523335L669.6058912044954 303.82926605523335Q682.0387387348045 303.82926605523335 689.9243873998618 305.15313407929403Q697.7812563252654 306.5057818430082 703.3933055576966 308.7793812756342L703.3933055576966 308.7793812756342L699.2490230475936 323.9175243333717Q689.2912331274849 319.14008755089185 670.8434200095955 319.14008755089185L670.8434200095955 319.14008755089185Q662.353396811815 319.14008755089185 654.0648317916089 322.2482994334691Q645.7762667714028 325.3565113160464 639.2432658700598 332.4075475311523Q632.7102649687167 339.4585837462582 628.7962203758416 350.8553606490416Q624.8533960433131 362.25213755182506 624.8533960433131 378.8292675922372L624.8533960433131 378.8292675922372Q624.8533960433131 393.7371727327469 628.5659824586137 404.93249145795585Q632.3073486135679 416.1278101831648 638.8403495149109 423.5817627534195Q645.3733504162539 431.03571532367437 654.1799507502228 434.7770814786285Q662.9865510841919 438.5184476335827 673.3472573594495 438.5184476335827L673.3472573594495 438.5184476335827Q682.6718930071813 438.5184476335827 689.6078102636733 436.6477645561056Q696.5437275201652 434.7770814786285 701.3211643026451 431.8703277736257L701.3211643026451 431.8703277736257ZM716.2290694431547 399.5506801427525L716.2290694431547 399.5506801427525Q716.2290694431547 373.2459980994595 727.9424234821265 359.2590446278617Q739.6557775210983 345.27209115626385 761.6147188767139 345.27209115626385L761.6147188767139 345.27209115626385Q773.2129539570717 345.27209115626385 781.8180961134663 349.09979653017854Q790.4232382698608 352.9275019040931 796.0065077626385 360.0648773381595Q801.5897772554163 367.23103251187933 804.2950727828447 377.2751616509486Q807.0003683102731 387.3192907900178 807.0003683102731 399.5506801427525L807.0003683102731 399.5506801427525Q807.0003683102731 425.85536218604557 795.2870142713012 439.8423156576433Q783.5736602323294 453.8292691292412 761.6147188767139 453.8292691292412L761.6147188767139 453.8292691292412Q750.016483796356 453.8292691292412 741.4113416399615 450.0015637553265Q732.806199483567 446.17385838141195 727.2229299907892 439.0364829473456Q721.610880758358 431.8703277736257 718.9343649705831 421.8261986345565Q716.2290694431547 411.78206949548724 716.2290694431547 399.5506801427525ZM733.4393537559438 399.5506801427525L733.4393537559438 399.5506801427525Q733.4393537559438 407.4363288078098 734.9934596972324 414.6888232004901Q736.5475656385211 421.9413175931704 739.8572356986729 427.32312890837375Q743.1669057588246 432.70494022357695 748.5487170740279 436.01461028372876Q753.9305283892311 439.32428034388045 761.6147188767139 439.32428034388045L761.6147188767139 439.32428034388045Q789.790083997484 439.55451826110846 789.790083997484 399.5506801427525L789.790083997484 399.5506801427525Q789.790083997484 391.46357330012086 788.2359780561953 384.21107890744054Q786.6818721149067 376.9585845147602 783.372202054755 371.5767731995569Q780.0625319946032 366.1949618843536 774.6519409397464 362.97163104316235Q769.2701296245432 359.7770799416246 761.6147188767139 359.7770799416246L761.6147188767139 359.7770799416246Q733.4393537559438 359.5468420243966 733.4393537559438 399.5506801427525ZM916.1907005556271 451.35421151904075L899.613570515215 451.35421151904075L899.613570515215 392.2981857500722Q899.613570515215 376.12397206480887 894.951252691349 367.95052600321674Q890.288934867483 359.7770799416246 877.8560873371739 359.7770799416246L877.8560873371739 359.7770799416246Q866.8622267895394 359.7770799416246 859.724851355473 365.6769265705907Q852.5874759214066 371.5767731995569 849.6807222164039 380.4984924921399L849.6807222164039 380.4984924921399L849.6807222164039 451.35421151904075L833.1035921759917 451.35421151904075L833.1035921759917 347.7471487664643L844.7018272563495 347.7471487664643L847.8100391389268 360.38145447434795L848.6446515888781 360.38145447434795Q853.6235465489325 353.76211435404446 861.998450788099 349.50271288532747Q870.4021347669191 345.27209115626385 882.0003698472769 345.27209115626385L882.0003698472769 345.27209115626385Q890.4903930450575 345.27209115626385 896.9082749877866 347.2291134527014Q903.3549366701691 349.186135749139 907.5855583992327 354.1650307091934Q911.8449598679497 359.1439256692478 914.0034403419618 367.5476096480678Q916.1907005556271 375.92251388723446 916.1907005556271 388.787057512346L916.1907005556271 388.787057512346L916.1907005556271 451.35421151904075ZM932.7678305960394 362.25213755182506L932.7678305960394 347.7471487664643L948.9420442813027 347.7471487664643L948.9420442813027 327.2271943935235L965.519174321715 322.478537350697L965.519174321715 347.7471487664643L993.694539442485 347.7471487664643L993.694539442485 362.25213755182506L965.519174321715 362.25213755182506L965.519174321715 419.638938420891Q965.519174321715 430.431340790951 968.1956901094898 434.89220043724254Q970.9009856369182 439.32428034388045 977.3188675796473 439.32428034388045L977.3188675796473 439.32428034388045Q982.7006788948506 439.32428034388045 986.4420450498046 438.2018704973942Q990.1546314651054 437.0506809112545 994.7306100700107 435.1799978337774L994.7306100700107 435.1799978337774L998.4431964853115 447.84308328131453Q992.8599269925337 450.5195990690894 986.2405868722302 452.1888239689921Q979.5924670122732 453.8292691292412 971.937056264444 453.8292691292412L971.937056264444 453.8292691292412Q959.3027505565603 453.8292691292412 954.1223974189315 446.6918936951748Q948.9420442813027 439.55451826110846 948.9420442813027 422.7471503034683L948.9420442813027 422.7471503034683L948.9420442813027 362.25213755182506L932.7678305960394 362.25213755182506ZM1020.2006796633525 367.8354070446028L1015.0203265257237 355.40255951429356Q1022.905975190781 350.6539024714672 1033.3818004246525 348.38030303884113Q1043.8288459188707 346.0779238665617 1055.225622821654 346.0779238665617L1055.225622821654 346.0779238665617Q1066.018025191714 346.0779238665617 1072.5222463534035 348.9846775715646Q1079.0552472547465 351.89143127656735 1082.4800362735123 356.5537491004334Q1085.904825292278 361.2160669242993 1087.0272351387644 366.79933641707703Q1088.178424724904 372.41138564950825 1088.178424724904 377.994655142286L1088.178424724904 377.994655142286Q1088.178424724904 390.4275026725951 1087.5452704525271 402.2559756701809Q1086.9408959198038 414.0556689281133 1086.9408959198038 424.6178333809453L1086.9408959198038 424.6178333809453Q1086.9408959198038 432.302023868428 1087.5452704525271 439.12282216630604Q1088.178424724904 445.9724002038374 1089.8476496248068 451.7571278741897L1089.8476496248068 451.7571278741897L1077.616260272072 451.7571278741897L1073.2705195843944 437.2521390888289L1072.2344489568686 437.2521390888289Q1070.3637658793916 440.1588927938318 1067.5721311330026 442.9505275402206Q1064.7517166469604 445.770942026263 1060.8376720540853 447.929422500275Q1056.8948477215567 450.1166827139406 1051.7144945839277 451.55566969661515Q1046.534141446299 453.02343641894333 1039.886021586342 453.02343641894333L1039.886021586342 453.02343641894333Q1033.2666814660386 453.02343641894333 1027.5682930146468 450.9512951638918Q1021.8699045632551 448.8791539088403 1017.725622053152 445.0226687952721Q1013.581339543049 441.19496342135756 1011.1926211518091 435.81315210615423Q1008.8039027605691 430.431340790951 1008.8039027605691 423.5817627534195L1008.8039027605691 423.5817627534195Q1008.8039027605691 414.4585852832621 1012.5452689155234 408.3572804767215Q1016.2866350704774 402.2559756701809 1023.0210941493949 398.6297284738407Q1029.7555532283122 395.00348127750055 1039.1665280950047 393.4493753362119Q1048.6062827013507 391.8952693949233 1060.0030596041338 391.8952693949233L1060.0030596041338 391.8952693949233Q1062.9098133091368 391.8952693949233 1065.7014480555258 391.8952693949233Q1068.4930828019146 391.8952693949233 1071.3998365069174 392.2981857500722L1071.3998365069174 392.2981857500722Q1072.0042110396407 386.08176198491765 1072.0042110396407 381.10286702486326L1072.0042110396407 381.10286702486326Q1072.0042110396407 369.7060901220798 1067.4570121743886 365.1588912568278Q1062.9098133091368 360.58291265192236 1050.8798821339765 360.58291265192236L1050.8798821339765 360.58291265192236Q1047.3687538962504 360.58291265192236 1043.3108106051077 361.10094796568524Q1039.2816470536186 361.6189832794481 1035.0222455849016 362.5687146880134Q1030.791623855838 363.4896663569252 1026.93513874227 364.84231412063946Q1023.1074333683554 366.1949618843536 1020.2006796633525 367.8354070446028L1020.2006796633525 367.8354070446028ZM1044.4620001912474 438.5184476335827L1044.4620001912474 438.5184476335827Q1050.2467278615995 438.5184476335827 1054.8227064665052 436.96434169229406Q1059.369905331757 435.4102357510054 1062.6795753919089 433.0215173597654Q1066.018025191714 430.63279896852544 1068.176505665726 427.72604526352256Q1070.3637658793916 424.8192915585198 1071.3998365069174 422.14277577074483L1071.3998365069174 422.14277577074483L1071.3998365069174 404.93249145795585Q1068.4930828019146 404.7310332803813 1065.499989877951 404.6159143217674Q1062.4781172143344 404.5295751028069 1059.5713635093316 404.5295751028069L1059.5713635093316 404.5295751028069Q1053.1534815666025 404.5295751028069 1047.052176760062 405.2490685941442Q1040.922092213868 405.9685620854816 1036.259774390002 407.95436412157267Q1031.5974565661359 409.9113864180101 1028.805821819747 413.3361754367759Q1026.0141870733582 416.7609644555416 1026.0141870733582 421.9413175931704L1026.0141870733582 421.9413175931704Q1026.0141870733582 429.19381198585074 1031.194540210987 433.8561298097168Q1036.3748933486158 438.5184476335827 1044.4620001912474 438.5184476335827ZM1119.4620017282514 445.3392459314606L1119.4620017282514 306.3043236654338L1136.0391317686635 306.3043236654338L1136.0391317686635 357.9063968641475L1136.8737442186148 357.9063968641475Q1141.6511810010948 351.89143127656735 1148.9900146127356 348.58176121641566Q1156.3576279640301 345.27209115626385 1165.049109339385 345.27209115626385L1165.049109339385 345.27209115626385Q1185.166147357177 345.27209115626385 1195.210276496246 358.107855041722Q1205.2544056353154 370.94361892718007 1205.2544056353154 397.88145524284994L1205.2544056353154 397.88145524284994Q1205.2544056353154 425.0495294757477 1191.986945655055 439.12282216630604Q1178.7194856747942 453.22489459651786 1154.6884030641272 453.22489459651786L1154.6884030641272 453.22489459651786Q1143.0901679837696 453.22489459651786 1133.6504133774238 450.7210572466639Q1124.2394385107314 448.24599963646347 1119.4620017282514 445.3392459314606L1119.4620017282514 445.3392459314606ZM1162.142355634382 359.7770799416246L1162.142355634382 359.7770799416246Q1151.7816493591245 359.7770799416246 1145.3637674163956 365.56180761197675Q1138.9458854736663 371.3753150219825 1136.0391317686635 381.9374794748145L1136.0391317686635 381.9374794748145L1136.0391317686635 434.14392720625165Q1139.9819561011923 436.4463063785312 1145.56522559397 437.5687162250174Q1151.1772748264011 438.7199058111571 1157.1922404139814 438.7199058111571L1157.1922404139814 438.7199058111571Q1171.2655331045396 438.7199058111571 1179.6692170833599 428.7621158910483Q1188.0441213225263 418.83310571059314 1188.0441213225263 397.6799970652754L1188.0441213225263 397.6799970652754Q1188.0441213225263 389.59289022264375 1186.6051343398517 382.57063374719144Q1185.166147357177 375.5195975320855 1182.0579354745996 370.54070257203114Q1178.9497235920226 365.56180761197675 1174.0571678509284 362.6550539069739Q1169.1933918494879 359.7770799416246 1162.142355634382 359.7770799416246ZM1234.8975374784136 451.35421151904075L1234.8975374784136 347.7471487664643L1251.474667518826 347.7471487664643L1251.474667518826 451.35421151904075L1234.8975374784136 451.35421151904075ZM1231.3576295010341 316.26211358554247L1231.3576295010341 316.26211358554247Q1231.3576295010341 311.4846768030626 1234.5809603422251 308.05988778429685Q1237.775511443763 304.63509876553115 1242.7544064038173 304.63509876553115L1242.7544064038173 304.63509876553115Q1247.7333013638718 304.63509876553115 1251.244429601598 308.05988778429685Q1254.7843375789776 311.4846768030626 1254.7843375789776 316.26211358554247L1254.7843375789776 316.26211358554247Q1254.7843375789776 321.01077062836896 1251.244429601598 324.11898251094624Q1247.7333013638718 327.2271943935235 1242.7544064038173 327.2271943935235L1242.7544064038173 327.2271943935235Q1237.775511443763 327.2271943935235 1234.5809603422251 324.11898251094624Q1231.3576295010341 321.01077062836896 1231.3576295010341 316.26211358554247ZM1305.3503401501655 306.3043236654338L1305.3503401501655 425.85536218604557Q1305.3503401501655 433.1078565787259 1307.825397760366 436.21606846130317Q1310.3004553705664 439.32428034388045 1314.8764339754719 439.32428034388045L1314.8764339754719 439.32428034388045Q1317.5529497632467 439.32428034388045 1320.661161645824 438.9213639887315Q1323.7693735284013 438.5184476335827 1327.71219786093 437.0506809112545L1327.71219786093 437.0506809112545L1329.582880938407 450.1166827139406Q1326.2732108782554 451.7571278741897 1320.3733642492891 452.79319850171544Q1314.4447378806694 453.8292691292412 1310.0989971929919 453.8292691292412L1310.0989971929919 453.8292691292412Q1300.77436154526 453.8292691292412 1294.75939595768 448.5625767726518Q1288.7732101097533 443.2671046764091 1288.7732101097533 430.63279896852544L1288.7732101097533 430.63279896852544L1288.7732101097533 306.3043236654338L1305.3503401501655 306.3043236654338Z " fill="#4831d4" transform="matrix(0.6581011002521353,0,0,0.6581011002521352,0,50.69201080042123)"/></g></svg>